<svg width="24" height="29" viewBox="0 0 24 29" fill="none" xmlns="http://www.w3.org/2000/svg">
<path d="M19.5885 14.9465C19.5558 11.3958 22.5704 9.66834 22.7083 9.58792C21.001 7.16092 18.3547 6.82931 17.4247 6.80287C15.2022 6.57482 13.0463 8.09955 11.9141 8.09955C10.7593 8.09955 9.01581 6.82491 7.13673 6.86236C4.71869 6.89872 2.45657 8.2637 1.21591 10.3833C-1.34451 14.7052 0.565072 21.0564 3.01815 24.5498C4.24525 26.2607 5.67913 28.1711 7.55594 28.1038C9.39207 28.03 10.0779 26.9625 12.2937 26.9625C14.4892 26.9625 15.1332 28.1038 17.0473 28.0609C19.0179 28.03 20.2586 26.3423 21.4428 24.6159C22.8608 22.6549 23.4303 20.7237 23.4529 20.6245C23.4066 20.6091 19.6258 19.2023 19.5885 14.9465Z" fill="white"/>
<path d="M15.9728 4.50477C16.9603 3.30063 17.636 1.66243 17.4485 0C16.0191 0.0616941 14.2316 0.96397 13.2022 2.14167C12.2915 3.17945 11.4779 4.88044 11.6881 6.48008C13.2937 6.59686 14.9423 5.69018 15.9728 4.50477Z" fill="white"/>
</svg>
