<svg width="174" height="14" viewBox="0 0 174 14" fill="none" xmlns="http://www.w3.org/2000/svg">
<path d="M169.839 8.12362C168.878 8.14967 167.619 8.12181 166.662 8.08358C166.362 8.07172 166.514 8.01871 166.306 8.00814C165.901 7.98753 165.524 8.01353 165.124 7.98898C164.991 7.98058 165.156 7.89661 165.017 7.88973C164.255 7.85263 163.534 7.87401 162.762 7.85616C158.959 7.7681 155.22 7.73658 151.37 7.69833C150.101 7.68578 148.558 7.60958 147.247 7.64291C147.094 7.64687 147.185 7.72057 147.156 7.72665C146.699 7.81964 146.851 7.67085 146.553 7.65108C145.369 7.57303 144.053 7.56624 142.914 7.59469C142.429 7.607 142.915 7.75339 142.427 7.67123C142.393 7.66567 142.516 7.58741 142.383 7.57906C142.082 7.56029 141.51 7.57428 141.277 7.56808C140.827 7.55573 140.752 7.55652 140.326 7.55563C139.744 7.55372 139.052 7.51482 138.427 7.53255C138.294 7.53657 138.471 7.6168 138.258 7.63045C138.045 7.64408 137.482 7.63728 137.292 7.61837C137.103 7.59945 137.183 7.53639 137.15 7.52193C136.873 7.39994 136.222 7.5689 136.139 7.57308C134.611 7.64428 133.301 7.54803 131.867 7.5483C130.779 7.54871 129.615 7.58049 128.579 7.57613C127.345 7.57063 126.299 7.52715 125.1 7.53463C124.974 7.53532 125.122 7.62966 124.968 7.6307C123.326 7.64167 121.696 7.63139 120.061 7.56771C119.897 7.56124 120.108 7.47842 119.945 7.467C118.942 7.39894 117.355 7.23543 116.76 7.59603C116.08 7.58195 115.256 7.5674 114.648 7.49471C114.256 7.44793 114.637 7.3577 114.156 7.3962C114.047 7.40478 114.188 7.48379 114.025 7.49068C113.34 7.51961 112.591 7.49392 111.913 7.53475C111.775 7.54324 111.813 7.61404 111.774 7.62679C111.446 7.73004 110.899 7.55936 110.78 7.54696C109.872 7.45447 109.21 7.49086 108.364 7.48861C108.168 7.48804 108.4 7.58314 108.211 7.58602C107.232 7.59965 106.218 7.59147 105.259 7.54927C105.046 7.53966 105.242 7.45865 105.14 7.44991C104.691 7.41236 104.591 7.56537 104.16 7.53231C104.069 7.52553 104.12 7.45618 104.104 7.44857C103.844 7.32901 103.619 7.49842 103.552 7.50216C102.709 7.55326 102.169 7.3764 101.354 7.40145C101.256 7.40462 101.476 7.49237 101.202 7.49593C99.3758 7.52015 97.4441 7.49605 95.6363 7.42586C95.3552 7.41507 95.5558 7.34915 95.5382 7.34102C95.2499 7.21405 95.0633 7.38418 94.9717 7.39058C94.2486 7.4367 93.5732 7.29403 93.0819 7.49666C90.0198 7.42634 86.9716 7.54013 83.9347 7.3586C83.8962 7.3565 83.9653 7.27271 83.8883 7.26888C82.9607 7.22183 83.1389 7.35205 82.5251 7.51131C82.3705 7.5513 81.9002 7.35902 81.8586 7.34493C81.707 7.29299 81.8642 7.16834 81.8134 7.15828C81.3933 7.0793 81.4618 7.49152 80.8951 7.49166C80.8773 7.49097 80.9518 7.41509 80.9042 7.40755C80.7565 7.38386 80.6099 7.41401 80.4653 7.3879C80.1344 7.32746 80.0165 7.12716 79.511 7.24373C79.447 7.25886 79.5447 7.49269 79.0387 7.48165C78.8369 7.47704 77.9441 7.48105 77.6938 7.4659C77.4439 7.45076 77.6155 7.37541 77.5977 7.37215C76.9242 7.27251 77.1796 7.23121 76.8422 7.0837C76.5048 6.93674 76.5983 7.28725 76.4608 7.32637C76.323 7.36538 75.8293 7.28317 75.7079 7.2546C75.5867 7.226 75.7379 7.17812 75.6301 7.16194C74.915 7.05624 75.3162 7.33593 75.0806 7.39156C74.5251 7.52328 74.0925 7.26334 73.584 7.23787C73.4464 7.23099 73.5587 7.2902 73.4362 7.29573C72.9509 7.31688 72.6591 7.23577 72.107 7.31014C72.0167 7.32226 71.5704 7.47854 71.2815 7.36385C71.2406 7.34731 71.3568 7.28253 71.15 7.26802C70.8411 7.24625 70.2844 7.23209 69.9523 7.25374C69.7071 7.26976 69.9882 7.3765 69.6796 7.34334C69.5424 7.32853 69.7966 7.26609 69.5389 7.24349C69.2826 7.22089 68.6273 7.22363 68.3779 7.22579C68.129 7.22799 68.2652 7.30895 68.2451 7.31441C68.1233 7.34565 67.6456 7.3847 67.6034 7.3846C65.474 7.39448 63.5103 7.25801 61.437 7.30318C61.2743 7.30661 61.3827 7.39198 61.3579 7.39339C60.8009 7.42916 61.24 7.20216 60.8509 7.12618C60.9072 7.29943 60.6775 7.26806 60.2851 7.28706C60.0961 7.29636 60.199 7.36345 60.1818 7.37032C59.9014 7.47221 59.7062 7.3406 59.6559 7.31368C59.4702 7.21463 59.2681 7.33166 59.1417 7.26546C59.0154 7.19975 59.3061 7.10235 58.9298 7.10359C58.8243 7.16561 59.1036 7.32769 58.818 7.35396C57.74 7.45332 55.7279 7.32615 54.8612 7.31294C53.9962 7.29974 53.7168 7.31119 53.2128 7.28877C52.3024 7.24825 52.636 7.3685 52.0707 7.42354C51.5038 7.47857 51.7794 7.1827 51.6979 7.1191C51.6179 7.05552 51.5305 7.12096 51.431 7.08601C51.3318 7.05107 51.5466 7.00783 51.3133 6.99471C51.0798 6.9816 50.4416 7.0947 50.3589 7.16121C50.184 7.30211 50.4716 7.44998 49.8539 7.39803C49.8184 7.39494 49.9337 7.31714 49.7977 7.30928C48.7173 7.24939 47.595 7.24567 46.516 7.1927C46.3676 7.1853 46.5003 7.09875 46.4139 7.09346C45.5145 7.0381 45.836 7.18403 45.3431 7.34614C45.4538 7.13041 45.1812 6.99842 44.4987 6.99715C44.0883 6.99631 44.159 7.09053 43.8936 7.15694C43.814 7.17696 43.5237 7.11226 43.471 7.15657C43.2976 7.30142 43.571 7.46357 42.8673 7.399C42.8364 7.39593 42.9347 7.31664 42.828 7.31184C42.1384 7.28041 42.0559 7.43192 41.3105 7.45027C40.7262 7.46467 39.6871 7.37228 39.0217 7.35725C39.0357 7.1147 38.4073 7.17024 38.1524 7.33748C37.7207 7.33063 37.2543 7.34008 36.837 7.31697C36.6934 7.30909 36.7877 7.23886 36.7696 7.23128C36.4919 7.11225 36.3042 7.27495 36.211 7.28132C35.2009 7.34333 34.378 7.22002 33.414 7.34053C33.3798 7.34487 33.3243 7.51335 33.0667 7.39033C33.05 7.38185 33.3684 7.3052 32.9149 7.29927C32.4614 7.29333 31.6064 7.20301 30.9767 7.28108C30.8244 7.29988 30.439 7.43665 30.1297 7.32979C30.0885 7.31527 30.1336 7.26695 30.0741 7.24006C29.8818 7.15439 29.7768 7.32468 29.5508 7.18001C29.3247 7.03534 28.8546 6.92699 28.2196 7.02681C28.1994 7.02971 28.0491 7.16468 27.8494 7.16255C27.5306 7.15903 27.0781 7.13091 26.7453 7.13179C26.5859 7.13226 26.6879 7.21607 26.6602 7.2176C25.5887 7.26457 24.826 7.18985 23.6781 7.15742C23.4676 7.15131 22.8629 7.2656 22.4556 7.17525C22.0082 7.07633 22.4679 6.66486 21.4397 6.76289C21.025 6.8021 20.5 7.32412 19.7547 7.05366C18.3093 7.12068 16.9726 6.98226 15.5232 7.07795C15.458 7.08219 15.2519 7.22789 15.0987 7.2259C14.8712 7.22268 14.7463 7.15458 14.5839 7.1501C13.9033 7.12959 13.2804 7.18785 12.6242 7.17878C12.375 7.17549 12.4621 7.10508 12.165 7.10115C11.868 7.09728 11.67 7.18999 11.2675 7.14521C10.9636 7.11108 10.6597 6.92158 10.2563 6.89949C10.2409 7.08642 9.96378 7.08256 9.47131 7.13191C9.37663 7.14148 9.47816 7.20654 9.43338 7.21443C9.25114 7.24796 9.08247 7.19404 8.90942 7.23054C8.86736 7.23931 8.86531 7.30314 8.83093 7.31392C8.5383 7.40793 8.05621 7.26433 7.97339 7.23933C7.65602 7.14438 7.50775 7.22741 7.26433 7.19001C7.02133 7.15263 7.38464 7.10589 7.1008 7.0832C6.51239 7.03628 5.75632 7.04659 5.15872 7.04365C4.92027 7.04288 5.08296 7.12809 5.04883 7.12996C4.55576 7.15157 4.05717 7.06093 3.78377 7.23066C3.44191 6.79179 3.48642 7.27323 2.78166 7.18538C2.72612 7.17827 2.65553 6.97073 2.86865 6.94026C3.08179 6.90982 3.40498 6.97469 3.70068 6.9272C3.77075 6.91605 4.17184 6.72157 4.22661 6.70979C4.65532 6.61772 4.71611 6.92786 4.73877 6.9449C4.996 7.12873 5.48621 6.91921 5.6153 6.90474C6.20584 6.8384 6.70758 6.88202 7.20152 6.83467C7.5246 6.80407 7.55617 6.60091 7.80986 6.60713C8.65315 6.62768 8.94749 6.91109 9.74213 6.66536C9.91252 6.61295 9.74318 6.39091 10.3537 6.5655C10.3921 6.57651 10.8454 6.73624 11.1073 6.63521C11.1402 6.62247 11.1391 6.55776 11.1825 6.55232C11.4732 6.51716 11.6671 6.56871 11.9838 6.54402C12.3004 6.51933 12.6812 6.48252 13.0428 6.50447C13.2607 6.51759 13.5403 6.63816 13.6446 6.66768C13.9391 6.75271 14.2549 6.61329 14.4374 6.71626C14.6214 6.81975 14.2616 6.97691 14.7442 7.04377C14.762 6.87565 14.803 6.70309 14.8318 6.53401C15.8892 6.53993 16.9296 6.59429 17.9905 6.58687C18.1221 6.58578 17.9876 6.49539 18.1286 6.4919C18.7235 6.47754 19.2431 6.54197 19.86 6.51631C20.3376 6.4961 20.8612 6.40041 21.3606 6.3763C21.6656 6.56868 22.4065 6.50337 22.9448 6.52095C23.1334 6.52702 23.1208 6.57841 23.2549 6.59517C23.7608 6.65716 23.5237 6.48716 23.6624 6.4604C24.2574 6.34622 24.3084 6.73102 25.0099 6.72151C25.0471 6.72114 25.5013 6.51602 25.5639 6.50325C25.9615 6.41996 25.6297 6.57464 25.8786 6.5898C26.3328 6.61749 26.6485 6.66648 27.1815 6.6064C27.337 6.5886 27.7098 6.46076 28.0116 6.55965C28.0513 6.5726 28.0294 6.64039 28.0613 6.64436C28.6398 6.71055 28.655 6.49752 28.9856 6.42537C29.3162 6.35324 29.8269 6.5003 29.9308 6.54268C30.2027 6.65232 29.7225 6.58954 29.7077 6.6003C29.5348 6.72834 29.9072 6.7063 30.1918 6.71712C30.233 6.92599 30.631 6.91346 30.4868 6.72749C30.4704 6.70718 30.2489 6.72666 30.1918 6.71712C30.4416 6.51218 30.8789 6.48593 31.362 6.67744C31.5881 6.7672 31.3744 6.87186 32.0613 6.83357C32.373 6.81629 32.2525 6.67247 32.5276 6.63326C33.1562 6.54379 33.9729 6.67795 34.6208 6.65682C34.856 6.64914 34.6269 6.57041 34.7876 6.56246C35.2142 6.54109 35.5903 6.60016 36.0187 6.5699C36.0575 6.56706 35.9627 6.48465 36.0959 6.4836C37.1057 6.47403 37.985 6.52681 39.0394 6.52828C39.5488 6.52895 40.4596 6.48349 40.9874 6.49263C41.902 6.50798 43.0272 6.62782 43.8086 6.59871C44.3182 6.58008 44.2064 6.49765 44.4247 6.44148C44.8461 6.33262 45.592 6.52762 45.6924 6.55782C45.6955 6.55882 45.2569 6.57825 45.491 6.62056C45.627 6.70873 45.6875 6.5582 45.6924 6.55782C45.7584 6.57732 46.6344 6.59604 46.8083 6.58028C46.9029 6.57167 46.85 6.49357 46.8993 6.49056C48.0707 6.42067 49.2441 6.40082 50.4322 6.43733C50.4531 6.43891 50.4216 6.52627 50.4708 6.52889C51.1586 6.56773 51.599 6.46086 52.1662 6.39742C52.7334 6.334 53.1832 6.35524 53.5189 6.50521C53.9469 6.48632 54.5609 6.55262 54.9142 6.59285C55.2675 6.63308 55.3168 6.46304 55.3479 6.45967C56.3175 6.35208 56.878 6.44941 57.8839 6.46456C58.3621 6.47205 59.3107 6.44739 59.8286 6.42879C60.2378 6.41381 60.4843 6.45366 60.8614 6.42818C60.9124 6.42478 60.8609 6.34906 60.8765 6.34615C61.2973 6.25556 61.095 6.44066 61.1819 6.47371C61.4969 6.59392 61.6916 6.65795 62.2305 6.6014C62.3548 6.58845 62.7169 6.32194 62.9435 6.30635C63.2381 6.28658 63.1269 6.38211 63.4354 6.35897C63.4617 6.35707 63.4563 6.29814 63.6466 6.30074C64.5304 6.31203 65.4939 6.34632 66.4123 6.34041C66.5377 6.33983 66.3769 6.24636 66.5581 6.24398C67.4086 6.2329 68.3408 6.23636 69.1694 6.28011C69.3733 6.29117 69.2455 6.35662 69.2897 6.37606C69.5615 6.49364 69.947 6.32279 70.0106 6.31954C71.5276 6.23744 72.6887 6.39205 74.2348 6.31844C74.319 6.31412 74.9669 6.13097 75.2559 6.28805C75.2757 6.2985 75.5617 6.4592 75.8145 6.34932C75.8303 6.34245 75.652 6.25972 75.963 6.26815C76.274 6.27656 76.7745 6.22131 77.2019 6.31222C77.3373 6.34085 77.6571 6.50116 78.0608 6.37337C78.0871 6.36445 78.7103 6.0755 78.9327 6.27486C78.9688 6.30768 78.931 6.51865 79.4128 6.41048C79.5049 6.38951 79.3378 6.34245 79.5803 6.31307C79.9519 6.26778 80.4442 6.32429 80.901 6.23031C80.9806 6.21367 81.3197 6.07048 81.5917 6.17916C81.6343 6.19618 81.5534 6.26661 81.697 6.2745C82.3801 6.31231 83.0953 6.26519 83.7889 6.31392C84.0345 6.33105 83.909 6.44491 84.165 6.47542C84.4211 6.50593 84.9371 6.53527 85.2051 6.48324C85.4731 6.43118 85.1803 6.24971 85.5818 6.23519C87.3274 6.17212 89.0567 6.27858 90.7997 6.29415C91.0582 6.29648 90.8439 6.23154 91.2249 6.23031C92.6295 6.22548 95.0546 6.16459 96.2734 6.30257C97.2499 6.41309 96.021 6.49722 96.7672 6.5422C97.1273 6.56365 97.5169 6.35267 97.6039 6.34603C98.453 6.27856 99.0433 6.37202 99.8076 6.34335C99.9654 6.3374 99.8106 6.25188 99.9449 6.24776C100.404 6.23294 100.886 6.2711 101.324 6.26412C101.521 6.26079 101.485 6.19548 101.666 6.20052C102.099 6.21183 102.482 6.23929 102.904 6.3005C102.943 6.30608 102.683 6.38732 103.004 6.39034C103.522 6.395 104.166 6.45539 104.763 6.39303C104.94 6.37427 104.946 6.225 105.327 6.32809C105.407 6.34962 105.305 6.52885 105.748 6.37399C105.823 6.34825 106.567 6.13936 106.933 6.27401C107.029 6.30945 107.275 6.45612 107.488 6.43307C107.517 6.42939 107.401 6.34921 107.578 6.34139C108.2 6.31523 108.851 6.32378 109.49 6.29867C109.66 6.2918 109.406 6.20884 109.661 6.20126C110.36 6.18029 111.232 6.20141 111.916 6.22738C112.168 6.23711 111.994 6.30584 112.012 6.31332C112.307 6.43497 112.481 6.27077 112.579 6.26119C113.188 6.20386 113.651 6.28099 114.213 6.26058C114.367 6.25516 114.258 6.17687 114.288 6.16989C114.608 6.10167 114.37 6.24228 114.572 6.25778C115.139 6.30166 115.771 6.29537 116.344 6.28536C116.555 6.28157 116.318 6.19079 116.507 6.18844C117.626 6.1728 118.788 6.18148 119.88 6.23153C120.085 6.24112 119.956 6.31102 119.999 6.32699C120.294 6.43869 120.727 6.28633 120.826 6.27181C121.279 6.20554 121.455 6.26736 121.855 6.25582C123.808 6.19837 126.219 6.23932 128.062 6.26461C130.464 6.29717 132.328 6.36367 134.619 6.3464C134.765 6.34539 134.618 6.2524 134.743 6.25033C136.364 6.22791 137.959 6.26425 139.583 6.23739C139.716 6.23535 139.524 6.14719 139.738 6.14096C140.176 6.12755 140.732 6.13234 141.175 6.16049C141.392 6.17405 141.101 6.2497 141.319 6.26181C141.826 6.29017 142.37 6.29645 142.89 6.28231C143.112 6.27611 142.778 6.18594 143.066 6.1849C145.028 6.17596 146.955 6.16043 148.938 6.27719C149.074 6.28521 149.193 6.46846 149.482 6.43332C149.504 6.38246 149.503 6.32263 149.512 6.26828C152.368 6.23899 155.196 6.30252 158.06 6.31234C158.181 6.31274 157.972 6.21564 158.206 6.21591C159.559 6.21734 160.873 6.19045 162.257 6.28695C162.395 6.29639 162.324 6.46721 162.729 6.44137C162.8 6.43666 163.41 6.41388 163.568 6.3768C163.589 6.3712 163.478 6.29148 163.674 6.28915C164.816 6.27704 166.012 6.29525 167.152 6.34396C167.336 6.35198 167.14 6.43688 167.271 6.44333C168.2 6.4884 169.211 6.42385 170.098 6.50094C170.693 6.55285 170.473 6.69962 170.788 6.84408C170.833 6.86446 171.201 6.86769 171.22 6.95175C171.269 7.16311 171.091 7.39455 171.164 7.61984C171.179 7.66836 171.672 7.6161 171.38 7.73336C171.36 7.74121 171.003 7.78013 170.915 7.81991C170.853 7.84741 170.964 7.9329 170.839 7.9681C170.714 8.00328 170.576 7.93162 170.369 7.97298C170.162 8.01486 170.253 8.11211 169.839 8.12362ZM56.505 6.77266C56.8321 6.85432 56.8804 6.55523 56.5266 6.62679C56.5094 6.6306 56.4881 6.76866 56.505 6.77266ZM16.9237 6.8199C17.3514 6.95182 17.644 6.75784 17.3423 6.65596C17.0406 6.55418 16.7934 6.77991 16.9237 6.8199ZM12.4888 6.91621C12.9886 7.02023 13.0673 6.5961 12.5319 6.68184C12.5008 6.68668 12.4595 6.91017 12.4888 6.91621ZM169.324 6.88522C169.328 6.88919 169.593 6.89306 169.599 6.88913C169.74 6.79413 169.211 6.78646 169.324 6.88522ZM8.08786 7.02107C8.2439 7.07844 8.69316 7.01221 8.4993 6.94087C8.34323 6.88348 7.89352 6.9497 8.08786 7.02107ZM73.5703 7.09188C73.5754 7.09633 73.7651 7.10035 73.7613 7.07515C73.7484 6.99401 73.4845 7.01691 73.5703 7.09188ZM0.608017 7.02595C1.71315 7.04192 2.38318 7.39227 1.17972 7.35273C0.961761 7.34558 1.64943 7.24101 1.37204 7.20942C0.864487 7.15188 0.52745 7.37185 0.00950613 7.25398C-0.0842744 7.2324 0.544983 7.02426 0.609985 7.02546C0.609314 7.02563 0.608704 7.02579 0.608017 7.02595ZM56.6934 7.13191C56.6999 7.13587 56.9625 7.13962 56.9688 7.1357C57.1109 7.04074 56.582 7.03313 56.6934 7.13191ZM84.6373 7.27681C84.6517 7.28524 85.2611 7.29312 85.2809 7.28536C85.5988 7.13008 84.367 7.11369 84.6373 7.27681ZM39.0113 7.35078C38.7248 7.44631 38.3821 7.45755 38.1537 7.3376C38.4384 7.34397 38.725 7.34491 39.0113 7.35078Z" fill="white"/>
<path d="M169.839 8.12362C168.878 8.14967 167.619 8.12181 166.662 8.08358C166.362 8.07172 166.514 8.01871 166.306 8.00814C165.901 7.98753 165.524 8.01353 165.124 7.98898C164.991 7.98058 165.156 7.89661 165.017 7.88973C164.255 7.85263 163.534 7.87401 162.762 7.85616C158.959 7.7681 155.22 7.73658 151.37 7.69833C150.101 7.68578 148.558 7.60958 147.247 7.64291C147.094 7.64687 147.185 7.72057 147.156 7.72665C146.699 7.81964 146.851 7.67085 146.553 7.65108C145.369 7.57303 144.053 7.56624 142.914 7.59469C142.429 7.607 142.915 7.75339 142.427 7.67123C142.393 7.66567 142.516 7.58741 142.383 7.57906C142.082 7.56029 141.51 7.57428 141.277 7.56808C140.827 7.55573 140.752 7.55652 140.326 7.55563C139.744 7.55372 139.052 7.51482 138.427 7.53255C138.294 7.53657 138.471 7.6168 138.258 7.63045C138.045 7.64408 137.482 7.63728 137.292 7.61837C137.103 7.59945 137.183 7.53639 137.15 7.52193C136.873 7.39994 136.222 7.5689 136.139 7.57308C134.611 7.64428 133.301 7.54803 131.867 7.5483C130.779 7.54871 129.615 7.58049 128.579 7.57613C127.345 7.57063 126.299 7.52715 125.1 7.53463C124.974 7.53532 125.122 7.62966 124.968 7.6307C123.326 7.64167 121.696 7.63139 120.061 7.56771C119.897 7.56124 120.108 7.47842 119.945 7.467C118.942 7.39894 117.355 7.23543 116.76 7.59603C116.08 7.58195 115.256 7.5674 114.648 7.49471C114.256 7.44793 114.637 7.3577 114.156 7.3962C114.047 7.40478 114.188 7.48379 114.025 7.49068C113.34 7.51961 112.591 7.49392 111.913 7.53475C111.775 7.54324 111.813 7.61404 111.774 7.62679C111.446 7.73004 110.899 7.55936 110.78 7.54696C109.872 7.45447 109.21 7.49086 108.364 7.48861C108.168 7.48804 108.4 7.58314 108.211 7.58602C107.232 7.59965 106.218 7.59147 105.259 7.54927C105.046 7.53966 105.242 7.45865 105.14 7.44991C104.691 7.41236 104.591 7.56537 104.16 7.53231C104.069 7.52553 104.12 7.45618 104.104 7.44857C103.844 7.32901 103.619 7.49842 103.552 7.50216C102.709 7.55326 102.169 7.3764 101.354 7.40145C101.256 7.40462 101.476 7.49237 101.202 7.49593C99.3758 7.52015 97.4441 7.49605 95.6363 7.42586C95.3552 7.41507 95.5558 7.34915 95.5382 7.34102C95.2499 7.21405 95.0633 7.38418 94.9717 7.39058C94.2486 7.4367 93.5732 7.29403 93.0819 7.49666C90.0198 7.42634 86.9716 7.54013 83.9347 7.3586C83.8962 7.3565 83.9653 7.27271 83.8883 7.26888C82.9607 7.22183 83.1389 7.35205 82.5251 7.51131C82.3705 7.5513 81.9002 7.35902 81.8586 7.34493C81.707 7.29299 81.8642 7.16834 81.8134 7.15828C81.3933 7.0793 81.4618 7.49152 80.8951 7.49166C80.8773 7.49097 80.9518 7.41509 80.9042 7.40755C80.7565 7.38386 80.6099 7.41401 80.4653 7.3879C80.1344 7.32746 80.0165 7.12716 79.511 7.24373C79.447 7.25886 79.5447 7.49269 79.0387 7.48165C78.8369 7.47704 77.9441 7.48105 77.6938 7.4659C77.4439 7.45076 77.6155 7.37541 77.5977 7.37215C76.9242 7.27251 77.1796 7.23121 76.8422 7.0837C76.5048 6.93674 76.5983 7.28725 76.4608 7.32637C76.323 7.36538 75.8293 7.28317 75.7079 7.2546C75.5867 7.226 75.7379 7.17812 75.6301 7.16194C74.915 7.05624 75.3162 7.33593 75.0806 7.39156C74.5251 7.52328 74.0925 7.26334 73.584 7.23787C73.4464 7.23099 73.5587 7.2902 73.4362 7.29573C72.9509 7.31688 72.6591 7.23577 72.107 7.31014C72.0167 7.32226 71.5704 7.47854 71.2815 7.36385C71.2406 7.34731 71.3568 7.28253 71.15 7.26802C70.8411 7.24625 70.2844 7.23209 69.9523 7.25374C69.7071 7.26976 69.9882 7.3765 69.6796 7.34334C69.5424 7.32853 69.7966 7.26609 69.5389 7.24349C69.2826 7.22089 68.6273 7.22363 68.3779 7.22579C68.129 7.22799 68.2652 7.30895 68.2451 7.31441C68.1233 7.34565 67.6456 7.3847 67.6034 7.3846C65.474 7.39448 63.5103 7.25801 61.437 7.30318C61.2743 7.30661 61.3827 7.39198 61.3579 7.39339C60.8009 7.42916 61.24 7.20216 60.8509 7.12618C60.9072 7.29943 60.6775 7.26806 60.2851 7.28706C60.0961 7.29636 60.199 7.36345 60.1818 7.37032C59.9014 7.47221 59.7062 7.3406 59.6559 7.31368C59.4702 7.21463 59.2681 7.33166 59.1417 7.26546C59.0154 7.19975 59.3061 7.10235 58.9298 7.10359C58.8243 7.16561 59.1036 7.32769 58.818 7.35396C57.74 7.45332 55.7279 7.32615 54.8612 7.31294C53.9962 7.29974 53.7168 7.31119 53.2128 7.28877C52.3024 7.24825 52.636 7.3685 52.0707 7.42354C51.5038 7.47857 51.7794 7.1827 51.6979 7.1191C51.6179 7.05552 51.5305 7.12096 51.431 7.08601C51.3318 7.05107 51.5466 7.00783 51.3133 6.99471C51.0798 6.9816 50.4416 7.0947 50.3589 7.16121C50.184 7.30211 50.4716 7.44998 49.8539 7.39803C49.8184 7.39494 49.9337 7.31714 49.7977 7.30928C48.7173 7.24939 47.595 7.24567 46.516 7.1927C46.3676 7.1853 46.5003 7.09875 46.4139 7.09346C45.5145 7.0381 45.836 7.18403 45.3431 7.34614C45.4538 7.13041 45.1812 6.99842 44.4987 6.99715C44.0883 6.99631 44.159 7.09053 43.8936 7.15694C43.814 7.17696 43.5237 7.11226 43.471 7.15657C43.2976 7.30142 43.571 7.46357 42.8673 7.399C42.8364 7.39593 42.9347 7.31664 42.828 7.31184C42.1384 7.28041 42.0559 7.43192 41.3105 7.45027C40.7262 7.46467 39.6871 7.37228 39.0217 7.35725C39.0357 7.1147 38.4073 7.17024 38.1524 7.33748C37.7207 7.33063 37.2543 7.34008 36.837 7.31697C36.6934 7.30909 36.7877 7.23886 36.7696 7.23128C36.4919 7.11225 36.3042 7.27495 36.211 7.28132C35.2009 7.34333 34.378 7.22002 33.414 7.34053C33.3798 7.34487 33.3243 7.51335 33.0667 7.39033C33.05 7.38185 33.3684 7.3052 32.9149 7.29927C32.4614 7.29333 31.6064 7.20301 30.9767 7.28108C30.8244 7.29988 30.439 7.43665 30.1297 7.32979C30.0885 7.31527 30.1336 7.26695 30.0741 7.24006C29.8818 7.15439 29.7768 7.32468 29.5508 7.18001C29.3247 7.03534 28.8546 6.92699 28.2196 7.02681C28.1994 7.02971 28.0491 7.16468 27.8494 7.16255C27.5306 7.15903 27.0781 7.13091 26.7453 7.13179C26.5859 7.13226 26.6879 7.21607 26.6602 7.2176C25.5887 7.26457 24.826 7.18985 23.6781 7.15742C23.4676 7.15131 22.8629 7.2656 22.4556 7.17525C22.0082 7.07633 22.4679 6.66486 21.4397 6.76289C21.025 6.8021 20.5 7.32412 19.7547 7.05366C18.3093 7.12068 16.9726 6.98226 15.5232 7.07795C15.458 7.08219 15.2519 7.22789 15.0987 7.2259C14.8712 7.22268 14.7463 7.15458 14.5839 7.1501C13.9033 7.12959 13.2804 7.18785 12.6242 7.17878C12.375 7.17549 12.4621 7.10508 12.165 7.10115C11.868 7.09728 11.67 7.18999 11.2675 7.14521C10.9636 7.11108 10.6597 6.92158 10.2563 6.89949C10.2409 7.08642 9.96378 7.08256 9.47131 7.13191C9.37663 7.14148 9.47816 7.20654 9.43338 7.21443C9.25114 7.24796 9.08247 7.19404 8.90942 7.23054C8.86736 7.23931 8.86531 7.30314 8.83093 7.31392C8.5383 7.40793 8.05621 7.26433 7.97339 7.23933C7.65602 7.14438 7.50775 7.22741 7.26433 7.19001C7.02133 7.15263 7.38464 7.10589 7.1008 7.0832C6.51239 7.03628 5.75632 7.04659 5.15872 7.04365C4.92027 7.04288 5.08296 7.12809 5.04883 7.12996C4.55576 7.15157 4.05717 7.06093 3.78377 7.23066C3.44191 6.79179 3.48642 7.27323 2.78166 7.18538C2.72612 7.17827 2.65553 6.97073 2.86865 6.94026C3.08179 6.90982 3.40498 6.97469 3.70068 6.9272C3.77075 6.91605 4.17184 6.72157 4.22661 6.70979C4.65532 6.61772 4.71611 6.92786 4.73877 6.9449C4.996 7.12873 5.48621 6.91921 5.6153 6.90474C6.20584 6.8384 6.70758 6.88202 7.20152 6.83467C7.5246 6.80407 7.55617 6.60091 7.80986 6.60713C8.65315 6.62768 8.94749 6.91109 9.74213 6.66536C9.91252 6.61295 9.74318 6.39091 10.3537 6.5655C10.3921 6.57651 10.8454 6.73624 11.1073 6.63521C11.1402 6.62247 11.1391 6.55776 11.1825 6.55232C11.4732 6.51716 11.6671 6.56871 11.9838 6.54402C12.3004 6.51933 12.6812 6.48252 13.0428 6.50447C13.2607 6.51759 13.5403 6.63816 13.6446 6.66768C13.9391 6.75271 14.2549 6.61329 14.4374 6.71626C14.6214 6.81975 14.2616 6.97691 14.7442 7.04377C14.762 6.87565 14.803 6.70309 14.8318 6.53401C15.8892 6.53993 16.9296 6.59429 17.9905 6.58687C18.1221 6.58578 17.9876 6.49539 18.1286 6.4919C18.7235 6.47754 19.2431 6.54197 19.86 6.51631C20.3376 6.4961 20.8612 6.40041 21.3606 6.3763C21.6656 6.56868 22.4065 6.50337 22.9448 6.52095C23.1334 6.52702 23.1208 6.57841 23.2549 6.59517C23.7608 6.65716 23.5237 6.48716 23.6624 6.4604C24.2574 6.34622 24.3084 6.73102 25.0099 6.72151C25.0471 6.72114 25.5013 6.51602 25.5639 6.50325C25.9615 6.41996 25.6297 6.57464 25.8786 6.5898C26.3328 6.61749 26.6485 6.66648 27.1815 6.6064C27.337 6.5886 27.7098 6.46076 28.0116 6.55965C28.0513 6.5726 28.0294 6.64039 28.0613 6.64436C28.6398 6.71055 28.655 6.49752 28.9856 6.42537C29.3162 6.35324 29.8269 6.5003 29.9308 6.54268C30.2027 6.65232 29.7225 6.58954 29.7077 6.6003C29.5348 6.72834 29.9072 6.7063 30.1918 6.71712C30.233 6.92599 30.631 6.91346 30.4868 6.72749C30.4704 6.70718 30.2489 6.72666 30.1918 6.71712C30.4416 6.51218 30.8789 6.48593 31.362 6.67744C31.5881 6.7672 31.3744 6.87186 32.0613 6.83357C32.373 6.81629 32.2525 6.67247 32.5276 6.63326C33.1562 6.54379 33.9729 6.67795 34.6208 6.65682C34.856 6.64914 34.6269 6.57041 34.7876 6.56246C35.2142 6.54109 35.5903 6.60016 36.0187 6.5699C36.0575 6.56706 35.9627 6.48465 36.0959 6.4836C37.1057 6.47403 37.985 6.52681 39.0394 6.52828C39.5488 6.52895 40.4596 6.48349 40.9874 6.49263C41.902 6.50798 43.0272 6.62782 43.8086 6.59871C44.3182 6.58008 44.2064 6.49765 44.4247 6.44148C44.8461 6.33262 45.592 6.52762 45.6924 6.55782C45.6955 6.55882 45.2569 6.57825 45.491 6.62056C45.627 6.70873 45.6875 6.5582 45.6924 6.55782C45.7584 6.57732 46.6344 6.59604 46.8083 6.58028C46.9029 6.57167 46.85 6.49357 46.8993 6.49056C48.0707 6.42067 49.2441 6.40082 50.4322 6.43733C50.4531 6.43891 50.4216 6.52627 50.4708 6.52889C51.1586 6.56773 51.599 6.46086 52.1662 6.39742C52.7334 6.334 53.1832 6.35524 53.5189 6.50521C53.9469 6.48632 54.5609 6.55262 54.9142 6.59285C55.2675 6.63308 55.3168 6.46304 55.3479 6.45967C56.3175 6.35208 56.878 6.44941 57.8839 6.46456C58.3621 6.47205 59.3107 6.44739 59.8286 6.42879C60.2378 6.41381 60.4843 6.45366 60.8614 6.42818C60.9124 6.42478 60.8609 6.34906 60.8765 6.34615C61.2973 6.25556 61.095 6.44066 61.1819 6.47371C61.4969 6.59392 61.6916 6.65795 62.2305 6.6014C62.3548 6.58845 62.7169 6.32194 62.9435 6.30635C63.2381 6.28658 63.1269 6.38211 63.4354 6.35897C63.4617 6.35707 63.4563 6.29814 63.6466 6.30074C64.5304 6.31203 65.4939 6.34632 66.4123 6.34041C66.5377 6.33983 66.3769 6.24636 66.5581 6.24398C67.4086 6.2329 68.3408 6.23636 69.1694 6.28011C69.3733 6.29117 69.2455 6.35662 69.2897 6.37606C69.5615 6.49364 69.947 6.32279 70.0106 6.31954C71.5276 6.23744 72.6887 6.39205 74.2348 6.31844C74.319 6.31412 74.9669 6.13097 75.2559 6.28805C75.2757 6.2985 75.5617 6.4592 75.8145 6.34932C75.8303 6.34245 75.652 6.25972 75.963 6.26815C76.274 6.27656 76.7745 6.22131 77.2019 6.31222C77.3373 6.34085 77.6571 6.50116 78.0608 6.37337C78.0871 6.36445 78.7103 6.0755 78.9327 6.27486C78.9688 6.30768 78.931 6.51865 79.4128 6.41048C79.5049 6.38951 79.3378 6.34245 79.5803 6.31307C79.9519 6.26778 80.4442 6.32429 80.901 6.23031C80.9806 6.21367 81.3197 6.07048 81.5917 6.17916C81.6343 6.19618 81.5534 6.26661 81.697 6.2745C82.3801 6.31231 83.0953 6.26519 83.7889 6.31392C84.0345 6.33105 83.909 6.44491 84.165 6.47542C84.4211 6.50593 84.9371 6.53527 85.2051 6.48324C85.4731 6.43118 85.1803 6.24971 85.5818 6.23519C87.3274 6.17212 89.0567 6.27858 90.7997 6.29415C91.0582 6.29648 90.8439 6.23154 91.2249 6.23031C92.6295 6.22548 95.0546 6.16459 96.2734 6.30257C97.2499 6.41309 96.021 6.49722 96.7672 6.5422C97.1273 6.56365 97.5169 6.35267 97.6039 6.34603C98.453 6.27856 99.0433 6.37202 99.8076 6.34335C99.9654 6.3374 99.8106 6.25188 99.9449 6.24776C100.404 6.23294 100.886 6.2711 101.324 6.26412C101.521 6.26079 101.485 6.19548 101.666 6.20052C102.099 6.21183 102.482 6.23929 102.904 6.3005C102.943 6.30608 102.683 6.38732 103.004 6.39034C103.522 6.395 104.166 6.45539 104.763 6.39303C104.94 6.37427 104.946 6.225 105.327 6.32809C105.407 6.34962 105.305 6.52885 105.748 6.37399C105.823 6.34825 106.567 6.13936 106.933 6.27401C107.029 6.30945 107.275 6.45612 107.488 6.43307C107.517 6.42939 107.401 6.34921 107.578 6.34139C108.2 6.31523 108.851 6.32378 109.49 6.29867C109.66 6.2918 109.406 6.20884 109.661 6.20126C110.36 6.18029 111.232 6.20141 111.916 6.22738C112.168 6.23711 111.994 6.30584 112.012 6.31332C112.307 6.43497 112.481 6.27077 112.579 6.26119C113.188 6.20386 113.651 6.28099 114.213 6.26058C114.367 6.25516 114.258 6.17687 114.288 6.16989C114.608 6.10167 114.37 6.24228 114.572 6.25778C115.139 6.30166 115.771 6.29537 116.344 6.28536C116.555 6.28157 116.318 6.19079 116.507 6.18844C117.626 6.1728 118.788 6.18148 119.88 6.23153C120.085 6.24112 119.956 6.31102 119.999 6.32699C120.294 6.43869 120.727 6.28633 120.826 6.27181C121.279 6.20554 121.455 6.26736 121.855 6.25582C123.808 6.19837 126.219 6.23932 128.062 6.26461C130.464 6.29717 132.328 6.36367 134.619 6.3464C134.765 6.34539 134.618 6.2524 134.743 6.25033C136.364 6.22791 137.959 6.26425 139.583 6.23739C139.716 6.23535 139.524 6.14719 139.738 6.14096C140.176 6.12755 140.732 6.13234 141.175 6.16049C141.392 6.17405 141.101 6.2497 141.319 6.26181C141.826 6.29017 142.37 6.29645 142.89 6.28231C143.112 6.27611 142.778 6.18594 143.066 6.1849C145.028 6.17596 146.955 6.16043 148.938 6.27719C149.074 6.28521 149.193 6.46846 149.482 6.43332C149.504 6.38246 149.503 6.32263 149.512 6.26828C152.368 6.23899 155.196 6.30252 158.06 6.31234C158.181 6.31274 157.972 6.21564 158.206 6.21591C159.559 6.21734 160.873 6.19045 162.257 6.28695C162.395 6.29639 162.324 6.46721 162.729 6.44137C162.8 6.43666 163.41 6.41388 163.568 6.3768C163.589 6.3712 163.478 6.29148 163.674 6.28915C164.816 6.27704 166.012 6.29525 167.152 6.34396C167.336 6.35198 167.14 6.43688 167.271 6.44333C168.2 6.4884 169.211 6.42385 170.098 6.50094C170.693 6.55285 170.473 6.69962 170.788 6.84408C170.833 6.86446 171.201 6.86769 171.22 6.95175C171.269 7.16311 171.091 7.39455 171.164 7.61984C171.179 7.66836 171.672 7.6161 171.38 7.73336C171.36 7.74121 171.003 7.78013 170.915 7.81991C170.853 7.84741 170.964 7.9329 170.839 7.9681C170.714 8.00328 170.576 7.93162 170.369 7.97298C170.162 8.01486 170.253 8.11211 169.839 8.12362ZM56.505 6.77266C56.8321 6.85432 56.8804 6.55523 56.5266 6.62679C56.5094 6.6306 56.4881 6.76866 56.505 6.77266ZM16.9237 6.8199C17.3514 6.95182 17.644 6.75784 17.3423 6.65596C17.0406 6.55418 16.7934 6.77991 16.9237 6.8199ZM12.4888 6.91621C12.9886 7.02023 13.0673 6.5961 12.5319 6.68184C12.5008 6.68668 12.4595 6.91017 12.4888 6.91621ZM169.324 6.88522C169.328 6.88919 169.593 6.89306 169.599 6.88913C169.74 6.79413 169.211 6.78646 169.324 6.88522ZM8.08786 7.02107C8.2439 7.07844 8.69316 7.01221 8.4993 6.94087C8.34323 6.88348 7.89352 6.9497 8.08786 7.02107ZM73.5703 7.09188C73.5754 7.09633 73.7651 7.10035 73.7613 7.07515C73.7484 6.99401 73.4845 7.01691 73.5703 7.09188ZM0.608017 7.02595C1.71315 7.04192 2.38318 7.39227 1.17972 7.35273C0.961761 7.34558 1.64943 7.24101 1.37204 7.20942C0.864487 7.15188 0.52745 7.37185 0.00950613 7.25398C-0.0842744 7.2324 0.544983 7.02426 0.609985 7.02546C0.609314 7.02563 0.608704 7.02579 0.608017 7.02595ZM56.6934 7.13191C56.6999 7.13587 56.9625 7.13962 56.9688 7.1357C57.1109 7.04074 56.582 7.03313 56.6934 7.13191ZM84.6373 7.27681C84.6517 7.28524 85.2611 7.29312 85.2809 7.28536C85.5988 7.13008 84.367 7.11369 84.6373 7.27681ZM39.0113 7.35078C38.7248 7.44631 38.3821 7.45755 38.1537 7.3376C38.4384 7.34397 38.725 7.34491 39.0113 7.35078Z" fill="white"/>
<path d="M170.724 5.34958L163.964 1.79125C162.359 0.945413 160.615 2.65458 161.426 4.27625L162.371 6.16625C162.634 6.69125 162.634 7.30958 162.371 7.83458L161.426 9.72458C160.615 11.3462 162.359 13.0496 163.964 12.2096L170.724 8.65125C172.054 7.95125 172.054 6.04958 170.724 5.34958Z" fill="white"/>
</svg>
